<?xml version="1.0" encoding="UTF-8"?>
<svg xmlns="http://www.w3.org/2000/svg" viewBox="0 0 800 500" width="800" height="500">
  <defs>
    <linearGradient id="bg" x1="0%" y1="0%" x2="100%" y2="100%">
      <stop offset="0%"  stop-color="#060C3D"/>
      <stop offset="100%" stop-color="#0D1B6E"/>
    </linearGradient>
    <radialGradient id="glow" cx="50%" cy="44%" r="44%">
      <stop offset="0%"  stop-color="#FFD700" stop-opacity="0.20"/>
      <stop offset="100%" stop-color="#FFD700" stop-opacity="0"/>
    </radialGradient>
    <filter id="blur4"><feGaussianBlur stdDeviation="4"/></filter>
    <filter id="blur8"><feGaussianBlur stdDeviation="8"/></filter>
  </defs>
  <rect width="800" height="500" fill="url(#bg)"/>
  <rect width="800" height="500" fill="url(#glow)"/>
  <rect x="14" y="14" width="772" height="472" rx="10"
        fill="none" stroke="#FFD700" stroke-width="1.4" stroke-opacity="0.38"/>
  <rect x="22" y="22" width="756" height="456" rx="6"
        fill="none" stroke="#FFD700" stroke-width="0.6" stroke-opacity="0.18"/>
<circle cx="34" cy="34" r="4" fill="#FFD700" fill-opacity="0.38"/>
<circle cx="766" cy="34" r="4" fill="#FFD700" fill-opacity="0.38"/>
<circle cx="34" cy="466" r="4" fill="#FFD700" fill-opacity="0.38"/>
<circle cx="766" cy="466" r="4" fill="#FFD700" fill-opacity="0.38"/>
<polygon points="400.0,25.0 523.7,96.3 595.0,220.0 523.7,343.7 400.0,415.0 276.3,343.7 205.0,220.0 276.3,96.3" fill="#FFD700" fill-opacity="0.08" stroke="#FFD700" stroke-width="1" stroke-opacity="0.38"/>
<polygon points="400,35 585,220 400,405 215,220" fill="#FFD700" fill-opacity="0.06" stroke="#FFD700" stroke-width="1.8" stroke-opacity="0.51"/>
<polygon points="400,105 515,220 400,335 285,220" fill="#FFD700" fill-opacity="0.06" stroke="#FFD700" stroke-width="1.2" stroke-opacity="0.51"/>
<circle cx="400" cy="220" r="65" fill="none" stroke="#FFD700" stroke-width="2" stroke-opacity="0.45"/>
<text x="400" y="234" text-anchor="middle" dominant-baseline="middle" font-size="58" fill="#FFD700" fill-opacity="0.80" font-family="serif">ॐ</text>
<line x1="220" y1="395" x2="580" y2="395" stroke="#FFD700" stroke-width="0.7" stroke-opacity="0.28"/>
<text x="400" y="402" text-anchor="middle" font-size="28" fill="#FFD700" fill-opacity="0.95" font-family="'Noto Sans Telugu',serif">సరస్వతీద్వాదశనామస్తోత్రమ్</text>
<text x="400" y="438" text-anchor="middle" font-size="20" fill="#FFD700" fill-opacity="0.72" font-family="'Noto Sans Devanagari',serif">सरस्वतीद्वादशनाम्स्तोत्रम्</text>
<text x="400" y="464" text-anchor="middle" font-size="13" fill="#FFD700" fill-opacity="0.55" font-family="sans-serif" letter-spacing="2">ŚRĪSARASVATĪDVĀDAŚANĀMASTOTRAM</text>

</svg>